<svg width="20" height="20" viewBox="0 0 20 20" fill="none" xmlns="http://www.w3.org/2000/svg">
<path d="M2.39662 15.0967C2.4349 14.7522 2.45405 14.5799 2.50618 14.4189C2.55243 14.276 2.61778 14.1401 2.70045 14.0147C2.79363 13.8733 2.91621 13.7508 3.16136 13.5057L14.1666 2.50041C15.0871 1.57994 16.5794 1.57994 17.4999 2.50041C18.4204 3.42089 18.4204 4.91327 17.4999 5.83375L6.49469 16.839C6.24954 17.0842 6.12696 17.2067 5.98566 17.2999C5.86029 17.3826 5.72433 17.4479 5.58146 17.4942C5.42042 17.5462 5.24814 17.5654 4.90356 17.6037L2.08325 17.9171L2.39662 15.0967Z" stroke="#2A2A2A" stroke-width="1.33333" stroke-linecap="round" stroke-linejoin="round"/>
</svg>
