<svg width="20" height="16" viewBox="0 0 20 16" fill="none" xmlns="http://www.w3.org/2000/svg">
<path d="M17.918 13.0002L12.3822 8.00016M7.62035 8.00016L2.08466 13.0002M1.66797 3.8335L8.47205 8.59633C9.02305 8.98208 9.29855 9.17491 9.59822 9.24958C9.86289 9.31558 10.1397 9.31558 10.4044 9.24958C10.7041 9.17491 10.9796 8.98208 11.5306 8.59633L18.3346 3.8335M5.66797 14.6668H14.3346C15.7348 14.6668 16.4348 14.6668 16.9696 14.3943C17.4401 14.1547 17.8225 13.7722 18.0621 13.3018C18.3346 12.767 18.3346 12.067 18.3346 10.6668V5.3335C18.3346 3.93336 18.3346 3.2333 18.0621 2.69852C17.8225 2.22811 17.4401 1.84566 16.9696 1.60598C16.4348 1.3335 15.7348 1.3335 14.3346 1.3335H5.66797C4.26784 1.3335 3.56777 1.3335 3.03299 1.60598C2.56259 1.84566 2.18014 2.22811 1.94045 2.69852C1.66797 3.2333 1.66797 3.93336 1.66797 5.3335V10.6668C1.66797 12.067 1.66797 12.767 1.94045 13.3018C2.18014 13.7722 2.56259 14.1547 3.03299 14.3943C3.56777 14.6668 4.26784 14.6668 5.66797 14.6668Z" stroke="#2A2A2A" stroke-width="1.6" stroke-linecap="round" stroke-linejoin="round"/>
</svg>
