<svg width="25" height="24" viewBox="0 0 25 24" fill="none" xmlns="http://www.w3.org/2000/svg">
<path d="M2.50073 4.62181C2.50073 4.05413 2.50073 3.77028 2.60972 3.55345C2.7056 3.36273 2.85858 3.20766 3.04674 3.11048C3.26065 3 3.54068 3 4.10073 3H20.9007C21.4608 3 21.7408 3 21.9547 3.11048C22.1429 3.20766 22.2958 3.36273 22.3917 3.55345C22.5007 3.77028 22.5007 4.05413 22.5007 4.62181V5.30033C22.5007 5.5728 22.5007 5.70903 22.4679 5.8357C22.4387 5.94796 22.3908 6.05431 22.3262 6.15013C22.2533 6.25826 22.1517 6.34748 21.9486 6.52593L15.5528 12.1445C15.3497 12.3229 15.2481 12.4122 15.1752 12.5203C15.1106 12.6161 15.0627 12.7225 15.0335 12.8347C15.0007 12.9614 15.0007 13.0976 15.0007 13.3701V18.6692C15.0007 18.8673 15.0007 18.9665 14.9692 19.0522C14.9413 19.1279 14.896 19.1957 14.837 19.2501C14.7702 19.3116 14.6794 19.3484 14.4978 19.4221L11.0978 20.8006C10.7303 20.9496 10.5465 21.0241 10.399 20.993C10.27 20.9659 10.1568 20.8882 10.084 20.7768C10.0007 20.6496 10.0007 20.4489 10.0007 20.0477V13.3701C10.0007 13.0976 10.0007 12.9614 9.96788 12.8347C9.93878 12.7225 9.89087 12.6161 9.82624 12.5203C9.75331 12.4122 9.65175 12.3229 9.44862 12.1445L3.05284 6.52593C2.84971 6.34748 2.74815 6.25826 2.67522 6.15013C2.61059 6.05431 2.56268 5.94796 2.53358 5.8357C2.50073 5.70903 2.50073 5.5728 2.50073 5.30033V4.62181Z" stroke="black" stroke-width="2" stroke-linecap="round" stroke-linejoin="round"/>
</svg>
