<svg width="20" height="23" viewBox="0 0 20 23" fill="none" xmlns="http://www.w3.org/2000/svg">
<path d="M7.35493 20.5C8.06004 21.1224 8.98634 21.5 10.0007 21.5C11.0152 21.5 11.9414 21.1224 12.6465 20.5M16.0007 7.5C16.0007 5.9087 15.3686 4.38258 14.2434 3.25736C13.1181 2.13214 11.592 1.5 10.0007 1.5C8.40944 1.5 6.88334 2.13214 5.75812 3.25736C4.6329 4.38258 4.00076 5.9087 4.00076 7.5C4.00076 10.5902 3.22123 12.706 2.35042 14.1054C1.61589 15.2859 1.24862 15.8761 1.26208 16.0408C1.277 16.2231 1.31562 16.2926 1.46253 16.4016C1.59522 16.5 2.19335 16.5 3.38961 16.5H16.6119C17.8081 16.5 18.4063 16.5 18.5389 16.4016C18.6859 16.2926 18.7245 16.2231 18.7394 16.0408C18.7529 15.8761 18.3856 15.2859 17.6511 14.1054C16.7802 12.706 16.0007 10.5902 16.0007 7.5Z" stroke="#2A2A2A" stroke-width="1.6" stroke-linecap="round" stroke-linejoin="round"/>
</svg>
