<svg width="16" height="20" viewBox="0 0 16 20" fill="none" xmlns="http://www.w3.org/2000/svg">
<path d="M6.33594 13.3327H9.66927M5.33594 18.3327H10.6693C12.0694 18.3327 12.7694 18.3327 13.3043 18.0602C13.7747 17.8205 14.1571 17.4381 14.3968 16.9677C14.6693 16.4328 14.6693 15.7328 14.6693 14.3327V5.66602C14.6693 4.26588 14.6693 3.56582 14.3968 3.03104C14.1571 2.56063 13.7747 2.17818 13.3043 1.9385C12.7694 1.66602 12.0694 1.66602 10.6693 1.66602H5.33594C3.9358 1.66602 3.23574 1.66602 2.70096 1.9385C2.23055 2.17818 1.8481 2.56063 1.60842 3.03104C1.33594 3.56582 1.33594 4.26588 1.33594 5.66602V14.3327C1.33594 15.7328 1.33594 16.4328 1.60842 16.9677C1.8481 17.4381 2.23055 17.8205 2.70096 18.0602C3.23574 18.3327 3.9358 18.3327 5.33594 18.3327ZM10.5026 7.49935C10.5026 8.8801 9.38335 9.99935 8.0026 9.99935C6.62185 9.99935 5.5026 8.8801 5.5026 7.49935C5.5026 6.11864 6.62185 4.99935 8.0026 4.99935C9.38335 4.99935 10.5026 6.11864 10.5026 7.49935Z" stroke="black" stroke-width="1.66667" stroke-linecap="round" stroke-linejoin="round"/>
</svg>
