<svg width="20" height="21" viewBox="0 0 20 21" fill="none" xmlns="http://www.w3.org/2000/svg">
<path d="M13.3327 15.5L15.8327 13M15.8327 13L18.3327 15.5M15.8327 13V18M9.99935 13.4167H6.24935C5.08638 13.4167 4.50489 13.4167 4.03173 13.5602C2.96639 13.8833 2.13272 14.7171 1.80955 15.7824C1.66602 16.2556 1.66602 16.837 1.66602 18M12.0827 6.75C12.0827 8.82107 10.4038 10.5 8.33268 10.5C6.26162 10.5 4.58268 8.82107 4.58268 6.75C4.58268 4.67893 6.26162 3 8.33268 3C10.4038 3 12.0827 4.67893 12.0827 6.75Z" stroke="black" stroke-width="1.33333" stroke-linecap="round" stroke-linejoin="round"/>
</svg>
