<svg width="20" height="16" viewBox="0 0 20 16" fill="none" xmlns="http://www.w3.org/2000/svg">
<path d="M4.9974 7.16732V10.5007M14.9974 5.50065V8.83398M14.1641 1.33398C16.2046 1.33398 17.3083 1.64628 17.8575 1.88852C17.9306 1.92078 17.9672 1.93691 18.0727 2.03763C18.136 2.098 18.2515 2.27514 18.2811 2.35739C18.3307 2.4946 18.3307 2.5696 18.3307 2.7196V11.6766C18.3307 12.4339 18.3307 12.8126 18.2171 13.0072C18.1016 13.2052 17.9902 13.2972 17.774 13.3733C17.5615 13.4481 17.1324 13.3657 16.2742 13.2007C15.6736 13.0854 14.9611 13.0007 14.1641 13.0007C11.6641 13.0007 9.16406 14.6673 5.83073 14.6673C3.79014 14.6673 2.68645 14.355 2.1373 14.1128C2.06416 14.0805 2.0276 14.0644 1.92206 13.9637C1.8588 13.9033 1.74333 13.7262 1.71362 13.6439C1.66406 13.5067 1.66406 13.4317 1.66406 13.2817V4.32469C1.66406 3.56739 1.66406 3.18873 1.77763 2.9941C1.89315 2.79612 2.00455 2.70408 2.22078 2.62799C2.43335 2.55319 2.86242 2.63563 3.72059 2.80053C4.32125 2.91593 5.03363 3.00065 5.83073 3.00065C8.33073 3.00065 10.8307 1.33398 14.1641 1.33398ZM12.0807 8.00065C12.0807 9.15123 11.148 10.084 9.9974 10.084C8.84681 10.084 7.91406 9.15123 7.91406 8.00065C7.91406 6.85007 8.84681 5.91732 9.9974 5.91732C11.148 5.91732 12.0807 6.85007 12.0807 8.00065Z" stroke="black" stroke-width="1.39167" stroke-linecap="round" stroke-linejoin="round"/>
</svg>
