<svg width="44" height="44" viewBox="0 0 44 44" fill="none" xmlns="http://www.w3.org/2000/svg">
<rect width="44" height="44" rx="22" fill="#EAB70A"/>
<path d="M20.6816 22.0008H15.1628M15.0779 22.29L12.735 29.2091C12.5509 29.7527 12.4589 30.0244 12.5249 30.1919C12.5823 30.3372 12.7055 30.4474 12.8575 30.4893C13.0325 30.5376 13.2969 30.42 13.8256 30.1847L30.5941 22.7246C31.1102 22.4949 31.3682 22.3801 31.448 22.2206C31.5173 22.0821 31.5173 21.9195 31.448 21.781C31.3682 21.6215 31.1102 21.5067 30.5941 21.2771L13.8197 13.8143C13.2926 13.5798 13.029 13.4625 12.8542 13.5106C12.7023 13.5524 12.5792 13.6623 12.5216 13.8074C12.4553 13.9745 12.5464 14.2457 12.7285 14.7881L15.0785 21.7881C15.1098 21.8813 15.1254 21.9278 15.1316 21.9754C15.1371 22.0178 15.137 22.0605 15.1314 22.1028C15.1251 22.1504 15.1094 22.1969 15.0779 22.29Z" stroke="black" stroke-width="1.6" stroke-linecap="round" stroke-linejoin="round"/>
</svg>
