<svg width="18" height="18" viewBox="0 0 18 18" fill="none" xmlns="http://www.w3.org/2000/svg">
<path d="M3.16797 10.9066C1.62517 11.5872 0.667969 12.5356 0.667969 13.5846C0.667969 15.6557 4.39893 17.3346 9.0013 17.3346C13.6036 17.3346 17.3346 15.6557 17.3346 13.5846C17.3346 12.5356 16.3775 11.5872 14.8346 10.9066M14.0013 5.66797C14.0013 9.05439 10.2513 10.668 9.0013 13.168C7.7513 10.668 4.0013 9.05439 4.0013 5.66797C4.0013 2.90654 6.23988 0.667969 9.0013 0.667969C11.7627 0.667969 14.0013 2.90654 14.0013 5.66797ZM9.83464 5.66797C9.83464 6.1282 9.46155 6.5013 9.0013 6.5013C8.54105 6.5013 8.16797 6.1282 8.16797 5.66797C8.16797 5.20774 8.54105 4.83464 9.0013 4.83464C9.46155 4.83464 9.83464 5.20774 9.83464 5.66797Z" stroke="#2A2A2A" stroke-width="1.16667" stroke-linecap="round" stroke-linejoin="round"/>
</svg>
