<svg width="21" height="20" viewBox="0 0 21 20" fill="none" xmlns="http://www.w3.org/2000/svg">
<path d="M19.5 19H3.1C2.53995 19 2.25992 19 2.04601 18.891C1.85785 18.7951 1.70487 18.6422 1.60899 18.454C1.5 18.2401 1.5 17.9601 1.5 17.4V1M18.5 6L14.5811 10.1827C14.4326 10.3412 14.3584 10.4204 14.2688 10.4614C14.1897 10.4976 14.1026 10.5125 14.016 10.5047C13.9179 10.4958 13.8215 10.4458 13.6287 10.3457L10.3713 8.6543C10.1785 8.5542 10.0821 8.5042 9.984 8.4953C9.8974 8.4875 9.8103 8.5024 9.7312 8.5386C9.6416 8.5796 9.5674 8.6588 9.4189 8.8173L5.5 13" stroke="black" stroke-width="1.6" stroke-linecap="round" stroke-linejoin="round"/>
</svg>
