<svg width="19" height="21" viewBox="0 0 19 21" fill="none" xmlns="http://www.w3.org/2000/svg">
<path d="M13.0556 5.33388V4.62276C13.0556 3.62712 13.0556 3.12929 12.8618 2.749C12.6914 2.41449 12.4194 2.14252 12.0849 1.97209C11.7046 1.77832 11.2068 1.77832 10.2111 1.77832H8.78889C7.79324 1.77832 7.29541 1.77832 6.91513 1.97209C6.58061 2.14252 6.30865 2.41449 6.13821 2.749C5.94444 3.12929 5.94444 3.62712 5.94444 4.62276V5.33388M7.72222 10.2228V14.6672M11.2778 10.2228V14.6672M1.5 5.33388H17.5M15.7222 5.33388V15.2894C15.7222 16.7829 15.7222 17.5296 15.4316 18.1001C15.1759 18.6019 14.768 19.0098 14.2662 19.2654C13.6957 19.5561 12.9491 19.5561 11.4556 19.5561H7.54444C6.05097 19.5561 5.30423 19.5561 4.7338 19.2654C4.23204 19.0098 3.82409 18.6019 3.56843 18.1001C3.27778 17.5296 3.27778 16.7829 3.27778 15.2894V5.33388" stroke="#F44336" stroke-width="1.6" stroke-linecap="round" stroke-linejoin="round"/>
</svg>
