<svg width="23" height="20" viewBox="0 0 23 20" fill="none" xmlns="http://www.w3.org/2000/svg">
<path d="M15.5 16L17.5 18L21.5 14M11.5 13H7.5C5.63623 13 4.70435 13 3.96927 13.3045C2.98915 13.7105 2.21046 14.4892 1.80448 15.4693C1.5 16.2044 1.5 17.1362 1.5 19M15 1.29076C16.4659 1.88415 17.5 3.32131 17.5 5C17.5 6.67869 16.4659 8.1159 15 8.7092M13 5C13 7.20914 11.2091 9 9 9C6.79086 9 5 7.20914 5 5C5 2.79086 6.79086 1 9 1C11.2091 1 13 2.79086 13 5Z" stroke="#2A2A2A" stroke-width="1.6" stroke-linecap="round" stroke-linejoin="round"/>
</svg>
