<svg width="20" height="21" viewBox="0 0 20 21" fill="none" xmlns="http://www.w3.org/2000/svg">
<path d="M1.66602 6.33398L8.4701 11.0968C9.0211 11.4826 9.2966 11.6754 9.59627 11.7501C9.86093 11.8161 10.1378 11.8161 10.4024 11.7501C10.7021 11.6754 10.9776 11.4826 11.5286 11.0968L18.3327 6.33398M5.66602 17.1673H14.3327C15.7328 17.1673 16.4328 17.1673 16.9677 16.8948C17.4381 16.6552 17.8205 16.2727 18.0602 15.8023C18.3327 15.2675 18.3327 14.5675 18.3327 13.1673V7.83398C18.3327 6.43385 18.3327 5.73378 18.0602 5.19901C17.8205 4.7286 17.4381 4.34615 16.9677 4.10647C16.4328 3.83398 15.7328 3.83398 14.3327 3.83398H5.66602C4.26588 3.83398 3.56582 3.83398 3.03104 4.10647C2.56063 4.34615 2.17818 4.7286 1.9385 5.19901C1.66602 5.73378 1.66602 6.43385 1.66602 7.83398V13.1673C1.66602 14.5675 1.66602 15.2675 1.9385 15.8023C2.17818 16.2727 2.56063 16.6552 3.03104 16.8948C3.56582 17.1673 4.26588 17.1673 5.66602 17.1673Z" stroke="#2A2A2A" stroke-width="1.33333" stroke-linecap="round" stroke-linejoin="round"/>
</svg>
