<svg width="17" height="20" viewBox="0 0 17 20" fill="none" xmlns="http://www.w3.org/2000/svg">
<path d="M15.1176 10.2647V5.23529C15.1176 3.7528 15.1176 3.01155 14.8291 2.44532C14.5754 1.94724 14.1704 1.54229 13.6724 1.28851C13.1061 1 12.3649 1 10.8824 1H5.23529C3.7528 1 3.01155 1 2.44532 1.28851C1.94724 1.54229 1.54229 1.94724 1.28851 2.44532C1 3.01155 1 3.7528 1 5.23529V14.4118C1 15.8943 1 16.6355 1.28851 17.2018C1.54229 17.6999 1.94724 18.1048 2.44532 18.3585C3.01155 18.6471 3.7528 18.6471 5.23529 18.6471H8.05882M9.82353 8.94118H4.52941M6.29412 12.4706H4.52941M11.5882 5.41177H4.52941M10.2647 16L12.0294 17.7647L16 13.7941" stroke="black" stroke-width="1.3125" stroke-linecap="round" stroke-linejoin="round"/>
</svg>
