<svg width="22" height="22" viewBox="0 0 22 22" fill="none" xmlns="http://www.w3.org/2000/svg">
<path d="M19.25 19.9375C19.25 18.4983 19.25 17.7788 19.0724 17.1932C18.6725 15.8749 17.6407 14.8431 16.3224 14.4432C15.7368 14.2656 15.0173 14.2656 13.5781 14.2656H8.42188C6.9827 14.2656 6.26311 14.2656 5.67757 14.4432C4.35921 14.8431 3.32754 15.8749 2.92762 17.1932C2.75 17.7788 2.75 18.4983 2.75 19.9375M15.6406 6.01562C15.6406 8.57857 13.563 10.6562 11 10.6562C8.43705 10.6562 6.35938 8.57857 6.35938 6.01562C6.35938 3.45268 8.43705 1.375 11 1.375C13.563 1.375 15.6406 3.45268 15.6406 6.01562Z" stroke="black" stroke-width="1.2375" stroke-linecap="round" stroke-linejoin="round"/>
</svg>
