<svg width="18" height="18" viewBox="0 0 18 18" fill="none" xmlns="http://www.w3.org/2000/svg">
<path d="M13.9994 12.1974C15.2127 12.8069 16.2528 13.785 17.0121 15.008C17.1624 15.2503 17.2376 15.3713 17.2636 15.539C17.3164 15.8798 17.0834 16.2988 16.766 16.4337C16.6098 16.5 16.4341 16.5 16.0827 16.5M12.3327 8.61017C13.5675 7.99658 14.4161 6.72238 14.4161 5.25C14.4161 3.77762 13.5675 2.50343 12.3327 1.8898M10.6661 5.25C10.6661 7.32107 8.98708 9 6.91604 9C4.84498 9 3.16604 7.32107 3.16604 5.25C3.16604 3.17893 4.84498 1.5 6.91604 1.5C8.98708 1.5 10.6661 3.17893 10.6661 5.25ZM1.13207 14.7819C2.46066 12.7872 4.55719 11.5 6.91604 11.5C9.27491 11.5 11.3714 12.7872 12.7 14.7819C12.9911 15.219 13.1366 15.4375 13.1198 15.7166C13.1068 15.9339 12.9643 16.2 12.7907 16.3313C12.5677 16.5 12.2609 16.5 11.6474 16.5H2.18468C1.57119 16.5 1.26445 16.5 1.04141 16.3313C0.867753 16.2 0.725287 15.9339 0.712237 15.7166C0.695487 15.4375 0.841012 15.219 1.13207 14.7819Z" stroke="#2A2A2A" stroke-width="1.16667" stroke-linecap="round" stroke-linejoin="round"/>
</svg>
